<svg xmlns="http://www.w3.org/2000/svg" version="1.1" xmlns:xlink="http://www.w3.org/1999/xlink" xmlns:svgjs="http://svgjs.dev/svgjs" viewBox="0 0 1920 1080"><rect width="1920" height="1080" fill="#161827"></rect><g transform="matrix(7.04171909509728e-17,1.15,-1.15,7.04171909509728e-17,1549.5381698608398,-527.8188953399658)"><path d="M0,-1080C-0.0038405768694976436,-965.0475220179375,10.425948275240843,-598.9799029276852,-0.02304346121698586,-390.285132107625C-10.472035197674815,-181.59036128756472,-66.96206263121974,-42.889230291601336,-62.69395041874698,172.16862492036142C-58.42583820627422,387.2264801323242,3.588381644234783,680.7223399347408,25.585629813619562,900.0619991641515C47.58287798300434,1119.4016583935622,73.55381023316495,1278.2169134908506,69.28953859756169,1488.2065802968255C65.02526696195842,1698.1962471028003,11.548256432926948,2048.0344300494708,0,2160L 1920 2160 L 1920 -1080 Z" fill="url(&quot;#SvgjsLinearGradient1351&quot;)"></path><path d="M160,-1080C165.67389507892784,-933.8372678750217,190.39481879737033,-469.6877747556781,194.04337047356697,-203.0236072501298C197.6919221497636,63.64056025541848,194.6061667138115,259.4781500669629,181.8913100571798,519.9850050332898C169.1764534005481,780.4918599996167,121.40278220997335,1086.68169005338,117.75423053377672,1360.0175225478317C114.10567885758009,1633.3533550422835,152.95903842229612,2026.6695870913054,160,2160L 1920 2160 L 1920 -1080 Z" fill="url(&quot;#SvgjsLinearGradient1352&quot;)"></path><path d="M320,-1080C329.2139185246253,-1012.1057315731696,377.51653431359523,-829.9227288175657,375.2835111477517,-672.6343894390174C373.0504879819082,-515.346050060469,306.5033089925216,-303.173190873548,306.60186100493877,-136.2699637287097C306.7004130173559,30.633263416128557,376.3421571977377,182.53759223181672,375.8748232222545,328.7849734300123C375.4074892467713,475.03235462820794,323.9720902287749,587.1636024890463,303.79785715203974,741.2143234604639C283.6236240753046,895.2650444318815,257.14802560449607,1097.821857195748,254.8294247618436,1253.0892992585182C252.5108239191911,1408.3567413212884,279.024489556432,1521.6671923801714,289.88625209612474,1672.818975837085C300.74801463581747,1823.9707592939985,314.9810420160208,2078.803162639514,320,2160L 1920 2160 L 1920 -1080 Z" fill="url(&quot;#SvgjsLinearGradient1353&quot;)"></path><path d="M480,-1080C473.2396540763144,-997.8614197031645,431.8466305942172,-735.6147985752348,439.4379244578867,-587.1685182189874C447.02921832155624,-438.72223786274003,522.3766462287741,-333.089104651771,525.5477631820171,-189.32231786251577C528.7188801352601,-45.55553107326054,475.7794568570878,121.2712879264678,458.4646261773446,275.43220251654407C441.1497954976014,429.5931171066203,407.17365490757544,567.3951140853628,421.6587791035582,735.6431696779418C436.1439032995409,903.8912252705209,536.1884073960638,1118.3747789093802,545.3753713532411,1284.9205360720182C554.5623353104185,1451.4662932346562,487.67645807216263,1589.071135332439,476.78056284662244,1734.9177126537695C465.88466762108226,1880.7642899751,479.46342714110375,2089.1529521089615,480,2160L 1920 2160 L 1920 -1080 Z" fill="url(&quot;#SvgjsLinearGradient1354&quot;)"></path><path d="M640,-1080C629.0521791186977,-972.7078743572335,564.781734705563,-641.7767914199351,574.3130747121866,-436.24724614340107C583.8444147188101,-230.71770086686703,675.5900433250206,-69.48828491937076,697.1880400397412,153.17727165920425C718.7860367544617,375.84282823777926,721.1837828173321,679.8122455514704,703.9010550005103,899.746093328049C686.6183271836884,1119.6799411046277,604.1418489722283,1262.738040540018,593.4916731388099,1472.7803583186765C582.8414973053915,1682.822676097335,632.2486121898016,2045.4633930531127,640,2160L 1920 2160 L 1920 -1080 Z" fill="url(&quot;#SvgjsLinearGradient1355&quot;)"></path><path d="M800,-1080C796.5109326615666,-982.3167883477089,783.4813288565093,-713.4764987947021,779.0655959693996,-493.9007300862533C774.6498630822899,-274.3249613778045,773.1654034347187,10.062905634723307,773.5056026773417,237.45461225069255C773.8458019199647,464.8463188666618,770.7163922367878,662.5609944524687,781.1067914251382,870.449509609562C791.4971906134887,1078.3380247666555,832.699129711634,1269.8606214615131,835.8479978074442,1484.7857031932529C838.9968659032545,1699.7107849249926,805.9746663012407,2047.4642838655423,800,2160L 1920 2160 L 1920 -1080 Z" fill="url(&quot;#SvgjsLinearGradient1356&quot;)"></path><path d="M960,-1080C961.6645922896066,-981.1320468377544,967.7518772745575,-714.1137751823999,969.9875537376398,-486.79228102652604C972.2232302007221,-259.4707868706522,972.1603363139371,53.570359226075226,973.4140587784939,283.928964935243C974.6677812430506,514.2875706444108,988.5929157827491,681.8505753137663,977.5098885249803,895.3593532284807C966.4268612672115,1108.8681311431951,909.8342099860445,1354.208191294943,906.9158952318811,1564.9816324235294C903.9975804777177,1775.7550735521158,951.1526492053135,2060.8302720705883,960,2160L 1920 2160 L 1920 -1080 Z" fill="url(&quot;#SvgjsLinearGradient1357&quot;)"></path><path d="M1120,-1080C1126.2907640460946,-990.6440473667066,1149.0872697225354,-714.5368858895919,1157.744584276568,-543.8642842002396C1166.4018988306007,-373.1916825108873,1169.3799438132482,-240.5912854758796,1171.9438873241959,-55.964389863886325C1174.5078308351435,128.66250574810692,1189.5095994193698,362.4395175796569,1173.128245342254,563.89708947172C1156.7468912651384,765.3546613637832,1094.3173680134216,976.7235184578998,1073.6557628615017,1152.7810414884923C1052.9941577095817,1328.8385645190847,1041.4345749076508,1452.3724012366904,1049.158614430734,1620.242227655275C1056.882653953817,1788.1120540738596,1108.1931024051223,2070.0403712758794,1120,2160L 1920 2160 L 1920 -1080 Z" fill="url(&quot;#SvgjsLinearGradient1358&quot;)"></path><path d="M1280,-1080C1290.084649653721,-940.0449247390736,1331.3222640900283,-510.8034645753591,1340.5078979223256,-240.2695484344415C1349.6935317546229,30.264367706476094,1343.2356655798985,286.3459299999799,1335.113802993784,543.2034968455057C1326.9919404076695,800.0610636910314,1300.9623562379365,1031.409768779631,1291.7767224056392,1300.8758526387132C1282.591088573342,1570.3419364977956,1281.9627870676065,2016.8126421064521,1280,2160L 1920 2160 L 1920 -1080 Z" fill="url(&quot;#SvgjsLinearGradient1359&quot;)"></path><path d="M1440,-1080C1433.3431519038104,-977.5491142321152,1392.1657111043019,-671.8597843299633,1400.0589114228617,-465.2946853926912C1407.9521117414215,-258.729586455419,1483.885836962513,-56.95787978179263,1487.3592019113587,159.39059362363315C1490.8325668602045,375.7390670290589,1417.5190980117661,616.4663761620826,1420.8991011159358,832.7961550398635C1424.2791042201054,1049.1259339176445,1504.4557373890323,1236.168626063629,1507.6392205363763,1457.3692668903184C1510.8227036837204,1678.5699077170077,1451.2732034227295,2042.894877815053,1440,2160L 1920 2160 L 1920 -1080 Z" fill="url(&quot;#SvgjsLinearGradient1360&quot;)"></path><path d="M1600,-1080C1610.0882331754276,-984.5903413802954,1654.9118247949184,-692.7742381019037,1660.5293990525659,-507.5420482817723C1666.1469733102133,-322.30985846164083,1645.2566724022254,-144.64941335357219,1633.7054455458845,31.393138920788687C1622.1542186895435,207.43569119514956,1593.088294023986,381.68443166730356,1591.22203791452,548.713265364393C1589.3557818050538,715.7420990614825,1629.4496401739848,863.0654352248455,1622.5079088890875,1033.5661411033254C1615.5661776041902,1204.0668469818054,1553.3229683533168,1383.9785241524937,1549.5716502051355,1571.7175006352727C1545.8203320569542,1759.4564771180517,1591.5952750341892,2061.9529167725454,1600,2160L 1920 2160 L 1920 -1080 Z" fill="url(&quot;#SvgjsLinearGradient1361&quot;)"></path><path d="M1760,-1080C1755.8435411174978,-1021.8688241899954,1731.112127134696,-866.7321381192692,1735.0612467049875,-731.2129451399727C1739.010366275279,-595.6937521606762,1769.8445014694162,-421.9009458636955,1783.6947174217491,-266.884842124221C1797.5449333740821,-111.86873838474651,1822.2758640546172,61.795621094373274,1818.162542418986,198.88367729687423C1814.049220783355,335.9717334993752,1777.0732650399593,441.0679562954479,1759.0147876079632,555.6434950907847C1740.956310175967,670.2190338861213,1706.8596700998132,762.4044222904091,1709.811677827009,886.3369100688946C1712.7636855542046,1010.26939784738,1764.4951139660018,1151.2376082631683,1776.7268339711368,1299.2384217616973C1788.9585539762718,1447.2392352602262,1785.9898035196752,1630.881528020351,1783.2019978578192,1774.341791060068C1780.414192195963,1917.8020540997852,1763.8669996429699,2095.7236318433447,1760,2160L 1920 2160 L 1920 -1080 Z" fill="url(&quot;#SvgjsLinearGradient1362&quot;)"></path></g><defs><linearGradient x1="0.1" y1="0" x2="0" y2="1" id="SvgjsLinearGradient1351"><stop stop-color="#161827" offset="0"></stop><stop stop-color="#161b27" offset="0"></stop></linearGradient><linearGradient x1="0.1" y1="0" x2="0" y2="1" id="SvgjsLinearGradient1352"><stop stop-color="#24273f" offset="0"></stop><stop stop-color="#242b3f" offset="0.08333333333333333"></stop></linearGradient><linearGradient x1="0.1" y1="0" x2="0" y2="1" id="SvgjsLinearGradient1353"><stop stop-color="#323658" offset="0"></stop><stop stop-color="#323c58" offset="0.16666666666666666"></stop></linearGradient><linearGradient x1="0.1" y1="0" x2="0" y2="1" id="SvgjsLinearGradient1354"><stop stop-color="#3f4570" offset="0"></stop><stop stop-color="#3f4d70" offset="0.25"></stop></linearGradient><linearGradient x1="0.1" y1="0" x2="0" y2="1" id="SvgjsLinearGradient1355"><stop stop-color="#4d5489" offset="0"></stop><stop stop-color="#4d5e89" offset="0.3333333333333333"></stop></linearGradient><linearGradient x1="0.1" y1="0" x2="0" y2="1" id="SvgjsLinearGradient1356"><stop stop-color="#5b63a1" offset="0"></stop><stop stop-color="#5b6fa1" offset="0.4166666666666667"></stop></linearGradient><linearGradient x1="0.1" y1="0" x2="0" y2="1" id="SvgjsLinearGradient1357"><stop stop-color="#737ab0" offset="0"></stop><stop stop-color="#7384b0" offset="0.5"></stop></linearGradient><linearGradient x1="0.1" y1="0" x2="0" y2="1" id="SvgjsLinearGradient1358"><stop stop-color="#8b91be" offset="0"></stop><stop stop-color="#8b99be" offset="0.5833333333333334"></stop></linearGradient><linearGradient x1="0.1" y1="0" x2="0" y2="1" id="SvgjsLinearGradient1359"><stop stop-color="#a4a9cc" offset="0"></stop><stop stop-color="#a4b0cc" offset="0.6666666666666666"></stop></linearGradient><linearGradient x1="0.1" y1="0" x2="0" y2="1" id="SvgjsLinearGradient1360"><stop stop-color="#bcc0d9" offset="0"></stop><stop stop-color="#bcc5d9" offset="0.75"></stop></linearGradient><linearGradient x1="0.1" y1="0" x2="0" y2="1" id="SvgjsLinearGradient1361"><stop stop-color="#d5d7e7" offset="0"></stop><stop stop-color="#d5dae7" offset="0.8333333333333334"></stop></linearGradient><linearGradient x1="0.1" y1="0" x2="0" y2="1" id="SvgjsLinearGradient1362"><stop stop-color="#edeef5" offset="0"></stop><stop stop-color="#edeff5" offset="0.9166666666666666"></stop></linearGradient></defs></svg>